<svg id="Capa_1" enable-background="new 0 0 512 512" height="512" viewBox="0 0 512 512" width="512" xmlns="http://www.w3.org/2000/svg"><g><g><path d="m368 272c-13.25 0-24 10.75-24 24 .01 13.25 10.75 23.99 24 24 13.25 0 24-10.75 24-24s-10.75-24-24-24zm0 32c-4.42 0-8-3.58-8-8 .01-4.42 3.58-7.99 8-8 4.42 0 8 3.58 8 8s-3.58 8-8 8z"/><path d="m437.58 212.55-15.22 4.92c13.7 42.62 12.78 88.6-2.63 130.64l-14.8-6.13c14.21-39.17 14.76-81.99 1.56-121.51l-15.17 5.09c11.97 35.86 11.55 74.7-1.18 110.29l-137.24-56.84 43.18-17.88c-.05.62-.08 1.25-.08 1.88 0 13.26 10.75 24 24 24s24-10.74 24-24c0-13.25-10.75-24-24-24-.49 0-.97.02-1.45.05l-1.61-3.89-70.16 29.06 72.23-174.38c1.69-4.08-.25-8.76-4.32-10.45-52.96-21.85-112.42-21.85-165.38 0-52.82 22.09-94.83 64.1-116.92 116.93-10.93 26.47-16.39 54.58-16.39 82.68 0 28.11 5.46 56.21 16.39 82.69 11.05 26.42 27.07 50.12 46.94 69.99 19.86 19.86 43.57 35.89 69.98 46.93 52.96 21.85 112.42 21.85 165.38 0 52.82-22.09 94.83-64.09 116.92-116.92 10.9-26.44 16.39-54.55 16.39-82.72 0-22.38-3.46-44.8-10.42-66.43zm-117.58 42.46c4.42.01 7.99 3.58 8 8 0 4.42-3.58 8-8 8s-8-3.58-8-8 3.58-8 8-8zm-32.22 56.99c4.41.01 7.99 3.58 8 8 0 4.42-3.58 8-8 8s-8-3.58-8-8 3.58-8 8-8zm-55.78-53.89-17.88-43.18c.62.05 1.25.08 1.88.08 13.25.01 24.01-10.72 24.02-23.98.01-13.25-10.72-24.01-23.98-24.02-7.03-.01-13.72 3.08-18.28 8.43l-22.6-54.57c36.75-13.15 76.93-13.15 113.68 0zm-7.39 111.47c-3 12.91 5.03 25.8 17.94 28.81 10 2.32 20.38-1.97 25.81-10.69l20.48 49.45c-18.23 6.56-37.46 9.89-56.84 9.86-2.02 0-4.02-.05-6.03-.12 8.78-9.91 7.86-25.07-2.05-33.85-4.39-3.89-10.06-6.03-15.92-6.03-13.25-.01-23.99 10.73-24 23.98 0 3.32.69 6.61 2.02 9.65-3.65-1.04-7.27-2.2-10.86-3.49l56.84-137.23 21.42 51.72c-12.91-3.01-25.81 5.03-28.81 17.94zm31.39 5.43c0 4.42-3.58 8-8 8s-8-3.58-8-8 3.58-8 8-8c4.42.01 7.99 3.58 8 8zm-40 56c0 4.42-3.58 8-8 8s-7.99-3.58-8-8c0-4.42 3.58-8 8-8s8 3.58 8 8zm-32-80c-4.42 0-8-3.58-8-8s3.58-8 8-8 8 3.58 8 8c-.01 4.42-3.58 8-8 8zm24-160c0-4.42 3.58-8 8-8s8 3.58 8 8-3.58 8-8 8-7.99-3.58-8-8zm93.11-99.75-6.14 14.82c-40.68-14.76-85.26-14.76-125.94 0l-6.13-14.8c44.62-16.35 93.59-16.36 138.21-.02zm-83.89 172.97-51.68-21.41c6.31-4.33 10.45-11.59 10.46-19.81 0-13.25-10.75-24-24-24-.44 0-.89.01-1.32.04 10-2.9 17.31-12.12 17.32-23.05 0-13.25-10.75-24-24-24s-24 10.75-24 24 10.75 24 24 24c.44 0 .89-.01 1.32-.04-10.01 2.89-17.32 12.12-17.32 23.05 0 1.52.14 3 .42 4.44l-48.42-20.06s23.94-55.47 80.38-80.38zm-66.64 6.8c-13.23.79-23.32 12.15-22.54 25.38.32 5.37 2.44 10.49 6.01 14.51l-60.19 24.93c-6.56-18.23-9.89-37.46-9.86-56.84-.03-19.38 3.3-38.61 9.86-56.84l10.01 4.14c-11.43 6.71-15.25 21.41-8.55 32.83 6.7 11.43 21.4 15.26 32.83 8.56 9.26-5.43 13.78-16.36 11.07-26.74l91.88 38.05-35.15 14.56c-.78-13.23-12.14-23.32-25.37-22.54zm9.42 22.85c0 4.42-3.58 8-8 8s-8-3.58-8-8c0-4.41 3.58-8 8-8 4.42.01 7.99 3.59 8 8zm-72-46.87c0-4.42 3.58-8 8-8 4.42.01 7.99 3.58 8 8 0 4.42-3.58 8-8 8s-8-3.58-8-8zm56-24c0-4.42 3.58-8 8-8s8 3.58 8 8-3.58 8-8 8c-4.42-.01-7.99-3.58-8-8zm0-39.01c-4.42-.01-7.99-3.58-8-8 0-4.42 3.58-8 8-8s8 3.58 8 8-3.58 8-8 8zm4.11-86.6 6.14 14.82c-39.14 18.41-70.63 49.9-89.04 89.04l-14.82-6.13c20.07-43.06 54.67-77.66 97.72-97.73zm-116.11 181.61c-.04-23.58 4.12-46.98 12.27-69.1l14.8 6.13c-14.76 40.68-14.76 85.26 0 125.94l-14.82 6.14c-8.14-22.13-12.29-45.53-12.25-69.11zm116.11 181.61c-43.05-20.07-77.65-54.67-97.71-97.73l14.81-6.13c18.41 39.14 49.9 70.63 89.04 89.04zm-68.11-109.99 137.22-56.84-14.29 34.49c-8.12-10.48-23.21-12.39-33.69-4.26-10.48 8.12-12.4 23.21-4.27 33.69 5.2 6.71 13.57 10.18 22 9.11l-26.59 64.19c-35.24-16.75-63.63-45.14-80.38-80.38zm152 128.38c-23.58.04-46.98-4.11-69.1-12.27l6.13-14.8c40.68 14.76 85.26 14.76 125.94 0l6.14 14.82c-22.13 8.14-45.53 12.29-69.11 12.25zm14.78-185.22 23.06 9.55c-8.66 10.03-7.54 25.18 2.49 33.84s25.17 7.55 33.83-2.48c3.37-3.9 5.39-8.78 5.77-13.92l72.07 29.85c-1.56 3.3-3.23 6.55-5.01 9.73-8.09-10.49-23.15-12.44-33.65-4.35-10.49 8.09-12.44 23.16-4.35 33.65 2.64 3.42 6.16 6.07 10.18 7.66-13.78 13.9-29.87 25.3-47.55 33.69zm120.02 85.41c-.32.43-.64.84-.97 1.27-3.03 3.24-8.11 3.41-11.35.38s-3.41-8.12-.38-11.36 8.11-3.41 11.35-.38c2.8 2.62 3.36 6.84 1.35 10.09zm-50.92 81.41-6.13-14.81c26.88-12.63 50.34-31.54 68.41-55.12.68-.79 1.31-1.63 1.89-2.5 7.28-9.82 13.56-20.35 18.74-31.42l14.82 6.14c-20.07 43.05-54.68 77.65-97.73 97.71z"/><path d="m495.39 133.54c-22.09-52.83-64.1-94.84-116.93-116.93-4.08-1.69-8.76.24-10.45 4.33l-79.62 192.22c-1.69 4.08.25 8.76 4.33 10.45 1.96.81 4.16.81 6.12 0l29.16-12.08v12.47c0 13.25 10.75 24 24 24s24-10.75 24-24v-32.35l8.37-3.46c2.31 13.05 14.76 21.75 27.82 19.44 11.46-2.03 19.81-11.99 19.81-23.63v-15.54l59.06-24.47c4.08-1.69 6.02-6.37 4.33-10.45zm-74.45 22.18c-2.99 1.24-4.94 4.15-4.94 7.39v20.89c0 4.42-3.58 8-8 8s-8-3.58-8-8v-7.64c0-4.42-3.58-8-8-8-1.05 0-2.09.21-3.06.61l-24 9.95c-2.99 1.24-4.94 4.16-4.94 7.39v37.69c0 4.42-3.58 8-8 8s-8-3.58-8-8v-24.44c0-4.42-3.58-8-8-8-1.05 0-2.09.21-3.06.61l-22.38 9.27 28.58-68.99c6.76 11.39 21.47 15.15 32.87 8.39s15.15-21.47 8.4-32.87c-5.44-9.16-16.26-13.64-26.57-11l13.68-33.03c17.76 8.42 33.92 19.87 47.75 33.84-12.39 4.7-18.63 18.55-13.94 30.94s18.54 18.64 30.94 13.94c4.26-1.61 7.98-4.41 10.71-8.06 1.8 3.23 3.49 6.53 5.08 9.88zm-69.16-35.5c0-4.42 3.58-8 8-8s8 3.58 8 8-3.58 8-8 8c-4.42-.01-7.99-3.58-8-8zm64 0c0-4.42 3.58-8 8-8s8 3.58 8 8-3.58 8-8 8-8-3.58-8-8zm47.07 18.14c-18.42-39.23-49.98-70.79-89.21-89.21l6.03-14.54c43.05 20.07 77.65 54.67 97.72 97.72z"/><path d="m248 120c-13.25 0-24 10.75-24 24s10.75 24 24 24c13.25-.01 23.99-10.75 24-24 0-13.25-10.75-24-24-24zm0 32c-4.42-.01-7.99-3.58-8-8 0-4.42 3.58-8 8-8s8 3.58 8 8-3.58 8-8 8z"/><path d="m136 344c-13.25 0-24 10.75-24 24 .01 13.25 10.75 23.99 24 24 13.25 0 24-10.75 24-24s-10.75-24-24-24zm0 32c-4.42 0-8-3.58-8-8 .01-4.42 3.58-7.99 8-8 4.42 0 8 3.58 8 8s-3.58 8-8 8z"/></g></g><g><g><path d="m368 272c-13.25 0-24 10.75-24 24 .01 13.25 10.75 23.99 24 24 13.25 0 24-10.75 24-24s-10.75-24-24-24zm0 32c-4.42 0-8-3.58-8-8 .01-4.42 3.58-7.99 8-8 4.42 0 8 3.58 8 8s-3.58 8-8 8z"/><path d="m144 152c-13.25 0-24 10.75-24 24s10.75 24 24 24c.44 0 .89-.01 1.32-.04 1.71-.5 3.51-.81 5.36-.91 10-2.9 17.31-12.12 17.32-23.05 0-13.25-10.75-24-24-24zm0 32c-4.42-.01-7.99-3.58-8-8 0-4.42 3.58-8 8-8s8 3.58 8 8-3.58 8-8 8zm0-32c-13.25 0-24 10.75-24 24s10.75 24 24 24c.44 0 .89-.01 1.32-.04 1.71-.5 3.51-.81 5.36-.91 10-2.9 17.31-12.12 17.32-23.05 0-13.25-10.75-24-24-24zm0 32c-4.42-.01-7.99-3.58-8-8 0-4.42 3.58-8 8-8s8 3.58 8 8-3.58 8-8 8zm293.58 28.55-15.22 4.92c13.7 42.62 12.78 88.6-2.63 130.64l-14.8-6.13c14.21-39.17 14.76-81.99 1.56-121.51l-15.17 5.09c11.97 35.86 11.55 74.7-1.18 110.29l-137.24-56.84 43.18-17.88c-.05.62-.08 1.25-.08 1.88 0 13.26 10.75 24 24 24s24-10.74 24-24c0-13.25-10.75-24-24-24-.49 0-.97.02-1.45.05l-1.61-3.89-70.16 29.06 72.23-174.38c1.69-4.08-.25-8.76-4.32-10.45-52.96-21.85-112.42-21.85-165.38 0-52.82 22.09-94.83 64.1-116.92 116.93-10.93 26.47-16.39 54.58-16.39 82.68 0 28.11 5.46 56.21 16.39 82.69 11.05 26.42 27.07 50.12 46.94 69.99 19.86 19.86 43.57 35.89 69.98 46.93 52.96 21.85 112.42 21.85 165.38 0 52.82-22.09 94.83-64.09 116.92-116.92 10.9-26.44 16.39-54.55 16.39-82.72 0-22.38-3.46-44.8-10.42-66.43zm-117.58 42.46c4.42.01 7.99 3.58 8 8 0 4.42-3.58 8-8 8s-8-3.58-8-8 3.58-8 8-8zm-32.22 56.99c4.41.01 7.99 3.58 8 8 0 4.42-3.58 8-8 8s-8-3.58-8-8 3.58-8 8-8zm-55.78-53.89-17.88-43.18c.62.05 1.25.08 1.88.08 13.25.01 24.01-10.72 24.02-23.98.01-13.25-10.72-24.01-23.98-24.02-7.03-.01-13.72 3.08-18.28 8.43l-22.6-54.57c36.75-13.15 76.93-13.15 113.68 0zm-7.39 111.47c-3 12.91 5.03 25.8 17.94 28.81 10 2.32 20.38-1.97 25.81-10.69l20.48 49.45c-18.23 6.56-37.46 9.89-56.84 9.86-2.02 0-4.02-.05-6.03-.12 8.78-9.91 7.86-25.07-2.05-33.85-4.39-3.89-10.06-6.03-15.92-6.03-13.25-.01-23.99 10.73-24 23.98 0 3.32.69 6.61 2.02 9.65-3.65-1.04-7.27-2.2-10.86-3.49l56.84-137.23 21.42 51.72c-12.91-3.01-25.81 5.03-28.81 17.94zm31.39 5.43c0 4.42-3.58 8-8 8s-8-3.58-8-8 3.58-8 8-8c4.42.01 7.99 3.58 8 8zm-40 56c0 4.42-3.58 8-8 8s-7.99-3.58-8-8c0-4.42 3.58-8 8-8s8 3.58 8 8zm-32-80c-4.42 0-8-3.58-8-8s3.58-8 8-8 8 3.58 8 8c-.01 4.42-3.58 8-8 8zm24-160c0-4.42 3.58-8 8-8s8 3.58 8 8-3.58 8-8 8-7.99-3.58-8-8zm93.11-99.75-6.14 14.82c-40.68-14.76-85.26-14.76-125.94 0l-6.13-14.8c44.62-16.35 93.59-16.36 138.21-.02zm-83.89 172.97-51.68-21.41c6.31-4.33 10.45-11.59 10.46-19.81 0-13.25-10.75-24-24-24-.44 0-.89.01-1.32.04 10-2.9 17.31-12.12 17.32-23.05 0-13.25-10.75-24-24-24s-24 10.75-24 24 10.75 24 24 24c.44 0 .89-.01 1.32-.04-10.01 2.89-17.32 12.12-17.32 23.05 0 1.52.14 3 .42 4.44l-48.42-20.06s23.94-55.47 80.38-80.38zm-66.64 6.8c-13.23.79-23.32 12.15-22.54 25.38.32 5.37 2.44 10.49 6.01 14.51l-60.19 24.93c-6.56-18.23-9.89-37.46-9.86-56.84-.03-19.38 3.3-38.61 9.86-56.84l10.01 4.14c-11.43 6.71-15.25 21.41-8.55 32.83 6.7 11.43 21.4 15.26 32.83 8.56 9.26-5.43 13.78-16.36 11.07-26.74l91.88 38.05-35.15 14.56c-.78-13.23-12.14-23.32-25.37-22.54zm9.42 22.85c0 4.42-3.58 8-8 8s-8-3.58-8-8c0-4.41 3.58-8 8-8 4.42.01 7.99 3.59 8 8zm-72-46.87c0-4.42 3.58-8 8-8 4.42.01 7.99 3.58 8 8 0 4.42-3.58 8-8 8s-8-3.58-8-8zm56-24c0-4.42 3.58-8 8-8s8 3.58 8 8-3.58 8-8 8c-4.42-.01-7.99-3.58-8-8zm0-39.01c-4.42-.01-7.99-3.58-8-8 0-4.42 3.58-8 8-8s8 3.58 8 8-3.58 8-8 8zm4.11-86.6 6.14 14.82c-39.14 18.41-70.63 49.9-89.04 89.04l-14.82-6.13c20.07-43.06 54.67-77.66 97.72-97.73zm-116.11 181.61c-.04-23.58 4.12-46.98 12.27-69.1l14.8 6.13c-14.76 40.68-14.76 85.26 0 125.94l-14.82 6.14c-8.14-22.13-12.29-45.53-12.25-69.11zm116.11 181.61c-43.05-20.07-77.65-54.67-97.71-97.73l14.81-6.13c18.41 39.14 49.9 70.63 89.04 89.04zm-68.11-109.99 137.22-56.84-14.29 34.49c-8.12-10.48-23.21-12.39-33.69-4.26-10.48 8.12-12.4 23.21-4.27 33.69 5.2 6.71 13.57 10.18 22 9.11l-26.59 64.19c-35.24-16.75-63.63-45.14-80.38-80.38zm152 128.38c-23.58.04-46.98-4.11-69.1-12.27l6.13-14.8c40.68 14.76 85.26 14.76 125.94 0l6.14 14.82c-22.13 8.14-45.53 12.29-69.11 12.25zm14.78-185.22 23.06 9.55c-8.66 10.03-7.54 25.18 2.49 33.84s25.17 7.55 33.83-2.48c3.37-3.9 5.39-8.78 5.77-13.92l72.07 29.85c-1.56 3.3-3.23 6.55-5.01 9.73-8.09-10.49-23.15-12.44-33.65-4.35-10.49 8.09-12.44 23.16-4.35 33.65 2.64 3.42 6.16 6.07 10.18 7.66-13.78 13.9-29.87 25.3-47.55 33.69zm120.02 85.41c-.32.43-.64.84-.97 1.27-3.03 3.24-8.11 3.41-11.35.38s-3.41-8.12-.38-11.36 8.11-3.41 11.35-.38c2.8 2.62 3.36 6.84 1.35 10.09zm-50.92 81.41-6.13-14.81c26.88-12.63 50.34-31.54 68.41-55.12.68-.79 1.31-1.63 1.89-2.5 7.28-9.82 13.56-20.35 18.74-31.42l14.82 6.14c-20.07 43.05-54.68 77.65-97.73 97.71zm-171.88-308.61c-13.25 0-24 10.75-24 24s10.75 24 24 24c.44 0 .89-.01 1.32-.04 1.71-.5 3.51-.81 5.36-.91 10-2.9 17.31-12.12 17.32-23.05 0-13.25-10.75-24-24-24zm0 32c-4.42-.01-7.99-3.58-8-8 0-4.42 3.58-8 8-8s8 3.58 8 8-3.58 8-8 8z"/><path d="m495.39 133.54c-22.09-52.83-64.1-94.84-116.93-116.93-4.08-1.69-8.76.24-10.45 4.33l-79.62 192.22c-1.69 4.08.25 8.76 4.33 10.45 1.96.81 4.16.81 6.12 0l29.16-12.08v12.47c0 13.25 10.75 24 24 24s24-10.75 24-24v-32.35l8.37-3.46c2.31 13.05 14.76 21.75 27.82 19.44 11.46-2.03 19.81-11.99 19.81-23.63v-15.54l59.06-24.47c4.08-1.69 6.02-6.37 4.33-10.45zm-74.45 22.18c-2.99 1.24-4.94 4.15-4.94 7.39v20.89c0 4.42-3.58 8-8 8s-8-3.58-8-8v-7.64c0-4.42-3.58-8-8-8-1.05 0-2.09.21-3.06.61l-24 9.95c-2.99 1.24-4.94 4.16-4.94 7.39v37.69c0 4.42-3.58 8-8 8s-8-3.58-8-8v-24.44c0-4.42-3.58-8-8-8-1.05 0-2.09.21-3.06.61l-22.38 9.27 28.58-68.99c6.76 11.39 21.47 15.15 32.87 8.39s15.15-21.47 8.4-32.87c-5.44-9.16-16.26-13.64-26.57-11l13.68-33.03c17.76 8.42 33.92 19.87 47.75 33.84-12.39 4.7-18.63 18.55-13.94 30.94s18.54 18.64 30.94 13.94c4.26-1.61 7.98-4.41 10.71-8.06 1.8 3.23 3.49 6.53 5.08 9.88zm-69.16-35.5c0-4.42 3.58-8 8-8s8 3.58 8 8-3.58 8-8 8c-4.42-.01-7.99-3.58-8-8zm64 0c0-4.42 3.58-8 8-8s8 3.58 8 8-3.58 8-8 8-8-3.58-8-8zm47.07 18.14c-18.42-39.23-49.98-70.79-89.21-89.21l6.03-14.54c43.05 20.07 77.65 54.67 97.72 97.72z"/><path d="m248 120c-13.25 0-24 10.75-24 24s10.75 24 24 24c13.25-.01 23.99-10.75 24-24 0-13.25-10.75-24-24-24zm0 32c-4.42-.01-7.99-3.58-8-8 0-4.42 3.58-8 8-8s8 3.58 8 8-3.58 8-8 8z"/><path d="m136 344c-13.25 0-24 10.75-24 24 .01 13.25 10.75 23.99 24 24 13.25 0 24-10.75 24-24s-10.75-24-24-24zm0 32c-4.42 0-8-3.58-8-8 .01-4.42 3.58-7.99 8-8 4.42 0 8 3.58 8 8s-3.58 8-8 8z"/></g><g><path d="m152 199.01c-.44 0-.89.01-1.32.04 10-2.9 17.31-12.12 17.32-23.05 0-13.25-10.75-24-24-24s-24 10.75-24 24 10.75 24 24 24c.44 0 .89-.01 1.32-.04-10.01 2.89-17.32 12.12-17.32 23.05 0 1.52.14 3 .42 4.44l37.12 15.37c6.31-4.33 10.45-11.59 10.46-19.81 0-13.25-10.75-24-24-24zm-8-15.01c-4.42-.01-7.99-3.58-8-8 0-4.42 3.58-8 8-8s8 3.58 8 8-3.58 8-8 8zm8 47.01c-4.42-.01-7.99-3.58-8-8 0-4.42 3.58-8 8-8s8 3.58 8 8-3.58 8-8 8z" opacity=".4"/><path d="m144 152c-13.25 0-24 10.75-24 24s10.75 24 24 24c.44 0 .89-.01 1.32-.04 1.85-.1 3.65-.41 5.36-.91 10-2.9 17.31-12.12 17.32-23.05 0-13.25-10.75-24-24-24zm0 32c-4.42-.01-7.99-3.58-8-8 0-4.42 3.58-8 8-8s8 3.58 8 8-3.58 8-8 8z"/><path d="m152 199.01c-.44 0-.89.01-1.32.04-1.85.1-3.65.41-5.36.91-10.01 2.89-17.32 12.12-17.32 23.05 0 1.52.14 3 .42 4.44 2.07 11.13 11.85 19.56 23.58 19.56 5.02-.01 9.69-1.55 13.54-4.19 6.31-4.33 10.45-11.59 10.46-19.81 0-13.25-10.75-24-24-24zm0 16c4.42 0 8 3.58 8 8s-3.58 8-8 8c-4.42-.01-7.99-3.58-8-8 0-4.42 3.58-8 8-8z"/></g></g></svg>