<?xml version="1.0"?>
<svg xmlns="http://www.w3.org/2000/svg" id="Out_line" data-name="Out line" viewBox="0 0 512 512" width="512" height="512"><path d="M496,46.627V24a8.00039,8.00039,0,0,0-8-8h-22.627a8.00235,8.00235,0,0,0-5.65723,2.34277l-7.55371,7.55371L446.07422,18.794A8.00139,8.00139,0,0,0,440,16H400a8.00235,8.00235,0,0,0-5.65723,2.34277l-40,40a8.00752,8.00752,0,0,0-2.1875,4.08789L344.48,100.80713a7.99662,7.99662,0,0,0-2.11768,1.51611l-50.20654,50.20655-45.47119,7.57861a8.04275,8.04275,0,0,0-2.26269.73633l-16,8A8.00022,8.00022,0,0,0,224,176v48a64.07207,64.07207,0,0,0-64,64H128a7.99969,7.99969,0,0,0-6.50977,3.35059l-40,56a7.99936,7.99936,0,0,0,.53028,9.96386l10.67871,12.01343a64.46468,64.46468,0,0,0-57.95313,17.41724,63.99973,63.99973,0,0,0,90.50879,90.50976,8.00119,8.00119,0,0,0,0-11.31445l-22.62695-22.62695a8.003,8.003,0,0,0-11.31445,0,16,16,0,1,1,0-22.627L102.62695,432a8.003,8.003,0,0,0,11.31446,0l18.24682-18.24683,13.83228,15.56128a7.99895,7.99895,0,0,0,9.86426,1.67871l72-40a7.99853,7.99853,0,0,0,3.96-8.5625l-6.095-30.47509a64.0526,64.0526,0,0,0,62.20581-62.20581l30.47509,6.095a8.00309,8.00309,0,0,0,7.22657-2.1875l48-48a8.00157,8.00157,0,0,0,1.498-9.23535l-8.08764-16.175,49.41967-49.41968a7.99892,7.99892,0,0,0,2.24122-6.92285l19.70214,3.94043a8.00309,8.00309,0,0,0,7.22657-2.1875l48-48A8.00235,8.00235,0,0,0,496,112V80a8,8,0,0,0-1.92578-5.20605L483.49268,62.44873l10.16455-10.16455A8.00235,8.00235,0,0,0,496,46.627ZM377.45483,187.2312a136.93374,136.93374,0,0,0-51.63891-45.73315l5.9331-5.93311a143.81444,143.81444,0,0,1,51.47071,45.90137ZM108.28418,415.0293l-5.65625-5.65723a32.00073,32.00073,0,1,0-6.37305,50.19629l11.56055,11.56055a48.00727,48.00727,0,0,1-61.75586-73.07032,48.32273,48.32273,0,0,1,56.77734-8.28515,7.98064,7.98064,0,0,0,7.87354-.18262l10.8291,12.18262Zm92.10156-27.062-34.24023-41.08838-12.291,10.24218,32.29566,38.75464-32.43042,18.01685-55.5-62.43653,7.46753-10.45434,16.65551,16.65552,11.31446-11.31446L115.116,327.80151,132.11719,304H157.041l51.65625,44.27637,6.3125,31.5664ZM224,336a48.77736,48.77736,0,0,1-5.39941-.30737l-40.91993-35.07422A48.00432,48.00432,0,1,1,224,336Zm128-91.31445-26.34277-26.34278-11.31446,11.31446L340.68555,256l-18.49414,18.49414-3.03614-6.07226a8.03215,8.03215,0,0,0-1.498-2.07911l-24-24-11.31446,11.31446,23.082,23.082.104.208-19.30127-3.86036A64.2175,64.2175,0,0,0,240,226.02539v-13.081l20.42188,10.21093,7.15624-14.31054L240,195.05566V180.94434l10.50195-5.251,13.94727-2.32471,25.30371,31.6294,12.49414-9.9961L282.5293,170.355l11.10058-1.8501,51.9375,44.51758,12.69824,25.39746Zm7.15527-40.26367a8.00648,8.00648,0,0,0-1.94922-2.4961l-49.44018-42.37744,6.06714-6.06689a120.6826,120.6826,0,0,1,52.053,45.31835l-6.36109,6.36109ZM394.7085,169.978a159.74579,159.74579,0,0,0-51.17383-46.199l5.84717-5.84741a169.10927,169.10927,0,0,1,51.05859,46.31445Zm42.66162-18.6626-31.70752-6.34106A185.37192,185.37192,0,0,0,360,105.66211V104.792l7.36914-36.84765L399.99951,35.314l18.34326,18.34327,11.31446-11.31446L419.31445,32h17.00586L480,82.959v25.72657L453.65723,82.34277,442.34277,93.65723,468.686,120.00049l-12.6858,12.6853-18.343-18.343-11.31446,11.31446L444.68555,144ZM462.606,38.08105,468.68652,32H480V43.31348l-6.95117,6.95068Z"/><rect x="383.99947" y="76.68629" width="16.00105" height="22.62742" transform="translate(52.58875 302.96046) rotate(-45)"/></svg>
