<?xml version="1.0" ?><!DOCTYPE svg  PUBLIC '-//W3C//DTD SVG 1.1//EN'  'http://www.w3.org/Graphics/SVG/1.1/DTD/svg11.dtd'><svg enable-background="new 0 0 800 800" height="800px" id="Layer_1" version="1.1" viewBox="0 0 800 800" width="800px" xml:space="preserve" xmlns="http://www.w3.org/2000/svg" xmlns:xlink="http://www.w3.org/1999/xlink"><g><path d="M220.013,225.159c-12.927,0-23.441,10.506-23.441,23.441c0,12.918,10.514,23.441,23.441,23.441   c12.927,0,23.433-10.522,23.433-23.441C243.445,235.665,232.939,225.159,220.013,225.159z" fill="#4D4D4D"/><path d="M785.576,370.405c-2.111-13.874-4.909-27.328-8.312-40.281c-0.603-3.066-1.072-6.048-1.842-9.19   c-11.378-45.86-39.31-94.536-78.668-137.045c-17.066-18.431-35.422-34.718-54.307-48.491   c-17.249-12.583-34.918-22.989-52.461-31.015c-10.021-4.407-20.459-8.42-31.418-11.863c-25.602-8.026-53.5-13.371-82.454-15.616   c-10.153-0.788-20.392-1.19-30.437-1.19c-7.801,0-15.424,0.285-22.947,0.737c-0.243,0-0.469-0.033-0.721-0.033   c-46.346,0-103.114,16.999-155.744,46.631c-78.567,44.235-130.962,104.874-139.625,156.398c-1.609,1.072-2.605,1.575-3.896,2.396   l-105.77,67.115c-7.004,4.44-9.082,13.723-4.633,20.727c2.857,4.507,7.716,6.97,12.693,6.97c2.748,0,5.529-0.754,8.026-2.346   l95.005-60.279c1.399,5.111,3.351,10.045,5.973,14.703c1.667,2.966,3.628,5.748,5.722,8.395l-92.676,58.796   c-7.004,4.44-9.082,13.723-4.633,20.727c2.857,4.507,7.716,6.97,12.692,6.97c2.748,0,5.529-0.754,8.026-2.346l51.482-32.656   c-44.503,72.736-32.866,201.939,36.402,327.893c2.731,4.977,7.867,7.773,13.17,7.773c2.446,0,4.926-0.586,7.222-1.859   c7.255-3.988,9.911-13.119,5.915-20.393C99.933,561.219,98.35,412.881,173.842,371.36c3.318-1.826,33.269-2.379,48.893-2.379   c46.346,0,103.115-16.991,155.744-46.615c0.646-0.369,1.273-0.737,1.91-1.114c23.743,6.912,49.211,11.654,75.652,13.698   c10.154,0.805,20.392,1.19,30.428,1.19c0.117,0,0.219,0,0.327,0c6.292,7.942,12.852,15.834,20.007,23.575   c6.375,6.887,12.943,13.421,19.637,19.688c0.738,9.886,1.718,19.822,3.242,29.842c1.76,11.578,4.014,22.872,6.678,33.829   c-1.281,0.604-2.589,1.141-3.862,1.76c-87.18,42.375-142.172,110.537-140.011,167.172c0.025,0.688,0.084,1.357,0.117,2.027H266.083   c-7.942,0-14.376,6.199-14.904,14.008c0.528,7.791,6.962,13.99,14.904,13.99h133.643c0.117,0.234,0.193,0.471,0.302,0.688   c0.227,0.469,0.503,0.889,0.737,1.34c3.955,7.725,9.19,14.662,15.642,20.711H266.083c-8.286,0-15.013,6.719-15.013,15.014   c0,8.277,6.728,15.012,15.013,15.012c0,0,251.218,1.189,253.128,0.318c37.634-2.195,79.087-15.213,118.271-34.266   c40.473-19.67,75.342-45.859,100.391-74.914c14.62-13.957,26.826-33.494,35.841-57.957   C790.058,483.641,794.272,427.676,785.576,370.405z M376.511,288.596c-4.18,2.563-8.353,5.127-12.76,7.607   c-7.171,4.021-14.41,7.725-21.673,11.227c-41.646,20.149-84.139,31.526-119.343,31.526c-31.266,0-53.467-8.864-62.532-24.958   c-17.56-31.199,14.175-92.676,88.001-144.2c10.154-7.088,21.062-13.991,32.791-20.593c48.273-27.178,99.672-42.761,141.016-42.761   c0.688,0,1.307,0.067,1.978,0.067c7.121-0.453,26.056,2.563,25.753,2.865c12.734,2.898,22.729,7.976,29.44,15.03   c2.061,2.162,3.938,4.457,5.362,6.987c11.393,20.241,1.977,53.25-26.156,88.001c-6.77,8.361-14.695,16.806-23.609,25.217   C418.728,259.743,399.265,274.688,376.511,288.596z M501.5,305.737c-4.96,0.218-9.952,0.385-15.03,0.385   c-7.162,0-14.443-0.301-21.707-0.737c-2.136-0.117-4.264-0.201-6.392-0.369c-14.745-1.139-29.089-3.233-42.97-6.015   c11.377-8.076,21.958-16.487,31.676-25.117c8.286-7.339,15.936-14.846,22.922-22.436c43.725-47.519,61.167-98.439,40.709-134.783   c-0.127-0.218-0.294-0.402-0.428-0.62c-1.014-1.759-2.246-3.368-3.418-5.01c15.314,2.614,30.068,6.132,44,10.573   c4.817,1.424,9.701,3.117,14.628,5.027c0.15,0.067,0.302,0.134,0.452,0.184c3.117,1.223,6.258,2.53,9.417,3.938   c12.667,5.396,24.513,11.511,35.069,18.432c4.926,3.234,9.358,6.585,13.556,9.986c4.272,3.1,27.446,24.966,32.138,43.598   c1.524,6.065,2.387,12.064,1.926,18.08c-2.664,34.148-41.973,62.934-97.878,76.641c-9.978,2.446-20.483,4.407-31.417,5.831   C519.906,304.463,510.833,305.318,501.5,305.737z M528.837,339.307c-1.064-1.156-2.035-2.346-3.074-3.501   c-0.486-0.537-0.939-1.073-1.408-1.609c0.486-0.05,0.988-0.067,1.483-0.134c10.446-1.106,20.476-2.748,30.202-4.708   c75.115-15.156,127.192-54.699,131.783-105.15c0.025-0.352,0.126-0.67,0.15-1.022c0.102-1.207,0.093-2.396,0.135-3.586   c28.879,34.869,49.313,72.837,58.176,108.569c0.955,3.854,1.658,7.573,2.32,11.26c5.84,32.573,0.344,58.511-16.026,73.675   c-3.536,3.267-7.675,5.797-12.081,7.975c-8.771,4.357-19.085,6.753-31.148,6.753c-17.778,0-37.668-4.843-58.201-13.655   c-25.134-10.791-51.214-27.631-75.585-48.944C546.363,357.185,537.391,348.556,528.837,339.307z M624.353,633.838   c-39.777,19.336-81.768,29.977-118.236,29.977c-39.686,0-68.506-12.467-79.078-34.215   c-21.264-43.75,32.605-115.631,117.709-157.319c25.15,75.468,71.412,129.202,121.177,137.38   C653.056,618.473,639.173,626.633,624.353,633.838z M759.354,446.929c-1.524,25.687-6.099,49.731-13.807,70.659   c-7.322,19.855-16.882,35.303-27.966,46.045c-9.365,9.08-19.805,14.844-31.064,16.555c-42.953,6.416-89.543-45.844-113.939-119.938   c-3.082-9.35-5.797-19.068-8.126-29.038c-1.826-7.858-3.385-15.884-4.683-24.028c8.419,6.2,16.932,11.931,25.493,17.092   c14.134,8.512,28.368,15.465,42.4,20.86c21.389,8.21,42.325,12.718,61.687,12.718c10.84,0,20.986-1.508,30.361-4.256   c11.394-3.352,21.556-8.696,30.193-15.901c1.021-0.854,2.094-1.659,3.066-2.563c2.529-2.329,4.725-4.943,6.92-7.574   C759.897,434.111,759.73,440.562,759.354,446.929z" fill="#4D4D4D"/></g></svg>