<?xml version="1.0"?>
<svg xmlns="http://www.w3.org/2000/svg" id="outline" viewBox="0 0 512 512" width="512" height="512"><path d="M448,216H424v-8a8.00039,8.00039,0,0,0-8-8H192V181.25488q0-3.524.24243-7.00757a76.34191,76.34191,0,0,0,31.49683-14.99243L242.80664,144H448a40.04584,40.04584,0,0,0,40-40,8.00039,8.00039,0,0,0-8-8H112a8.00039,8.00039,0,0,0-8,8v4.77539a64.33116,64.33116,0,0,0,24.2627,50.48047A76.66657,76.66657,0,0,0,136,164.67236V200H96a8.00039,8.00039,0,0,0-8,8v8H64a48.05375,48.05375,0,0,0-48,48v5.59082A90.41109,90.41109,0,0,0,106.40918,360H114.283a112.846,112.846,0,0,0,28.08642,24H24a7.99951,7.99951,0,0,0-7.15527,11.57812A94.316,94.316,0,0,0,101.666,448H410.334a94.316,94.316,0,0,0,84.82129-52.42188A7.99951,7.99951,0,0,0,488,384H369.63062A112.846,112.846,0,0,0,397.717,360h7.87378A90.40908,90.40908,0,0,0,496,269.59082V264A48.05375,48.05375,0,0,0,448,216Zm-24,48h16a8.00917,8.00917,0,0,1,8,8,39.91979,39.91979,0,0,1-26.07275,37.468A112.12681,112.12681,0,0,0,424,288Zm24-136H240a8.0027,8.0027,0,0,0-4.99805,1.75293l-21.25781,17.00781a60.383,60.383,0,0,1-18.822,10.19556A100.4733,100.4733,0,0,1,219.39551,112h251.2334A24.04166,24.04166,0,0,1,448,128ZM120.10449,112H136v32.83008A48.337,48.337,0,0,1,120.10449,112ZM152,112h46.61255A116.37862,116.37862,0,0,0,176,181.25488V200H152ZM90.07275,309.468A39.91979,39.91979,0,0,1,64,272a8.00917,8.00917,0,0,1,8-8H88v24A112.12681,112.12681,0,0,0,90.07275,309.468Zm-44.21337,3.3728A74.00477,74.00477,0,0,1,32,269.59082V264a32.03667,32.03667,0,0,1,32-32H88v16H72a24.0275,24.0275,0,0,0-24,24,55.94441,55.94441,0,0,0,47.10889,55.26147,111.56885,111.56885,0,0,0,7.874,16.65064A74.5643,74.5643,0,0,1,45.85938,312.84082ZM473.77539,400A78.33637,78.33637,0,0,1,410.334,432H101.666a78.33637,78.33637,0,0,1-63.44141-32ZM312,384H200a96.10874,96.10874,0,0,1-96-96V216H408v72A96.10874,96.10874,0,0,1,312,384ZM480,269.59082a74.3951,74.3951,0,0,1-70.98291,74.32129,111.56885,111.56885,0,0,0,7.874-16.65064A55.94441,55.94441,0,0,0,464,272a24.0275,24.0275,0,0,0-24-24H424V232h24a32.03667,32.03667,0,0,1,32,32Z"/></svg>
